v -0.155 0 0
v -0.15499995 -0.0309999901 0
v -0.15499995 0 -0.0309999901
v -0.15499995 0 0.0309999901
v -0.15499995 0.0309999901 0
v -0.154999901 -0.0309999802 -0.0309999802
v -0.154999901 -0.0309999802 0.0309999802
v -0.154999901 0.0309999802 -0.0309999802
v -0.154999901 0.0309999802 0.0309999802
v -0.154987307 -0.0619949228 0
v -0.154987307 0 -0.0619949228
v -0.154987307 0 0.0619949228
v -0.154987307 0.0619949228 0
v -0.154987258 -0.061994903 -0.0309974515
v -0.154987258 -0.061994903 0.0309974515
v -0.154987258 -0.0309974515 -0.061994903
v -0.154987258 -0.0309974515 0.061994903
v -0.154987258 0.0309974515 -0.061994903
v -0.154987258 0.0309974515 0.061994903
v -0.154987258 0.061994903 -0.0309974515
v -0.154987258 0.061994903 0.0309974515
v -0.154974624 -0.0619898494 -0.0619898494
v -0.154974624 -0.0619898494 0.0619898494
v -0.154974624 0.0619898494 -0.0619898494
v -0.154974624 0.0619898494 0.0619898494
v -0.154677613 -0.0928065677 0
v -0.154677613 0 -0.0928065677
v -0.154677613 0 0.0928065677
v -0.154677613 0.0928065677 0
v -0.154677564 -0.0928065385 -0.0309355128
v -0.154677564 -0.0928065385 0.0309355128
v -0.154677564 -0.0309355128 -0.0928065385
v -0.154677564 -0.0309355128 0.0928065385
v -0.154677564 0.0309355128 -0.0928065385
v -0.154677564 0.0309355128 0.0928065385
v -0.154677564 0.0928065385 -0.0309355128
v -0.154677564 0.0928065385 0.0309355128
v -0.154665156 -0.0927990933 -0.0618660622
v -0.154665156 -0.0927990933 0.0618660622
v -0.154665156 -0.0618660622 -0.0927990933
v -0.154665156 -0.0618660622 0.0927990933
v -0.154665156 0.0618660622 -0.0927990933
v -0.154665156 0.0618660622 0.0927990933
v -0.154665156 0.0927990933 -0.0618660622
v -0.154665156 0.0927990933 0.0618660622
v -0.154361162 -0.0926166971 -0.0926166971
v -0.154361162 -0.0926166971 0.0926166971
v -0.154361162 0.0926166971 -0.0926166971
v -0.154361162 0.0926166971 0.0926166971
v -0.152023922 -0.121619138 0
v -0.152023922 0 -0.121619138
v -0.152023922 0 0.121619138
v -0.152023922 0.121619138 0
v -0.152023881 -0.121619105 -0.0304047761
v -0.152023881 -0.121619105 0.0304047761
v -0.152023881 -0.0304047761 -0.121619105
v -0.152023881 -0.0304047761 0.121619105
v -0.152023881 0.0304047761 -0.121619105
v -0.152023881 0.0304047761 0.121619105
v -0.152023881 0.121619105 -0.0304047761
v -0.152023881 0.121619105 0.0304047761
v -0.152013261 -0.121610609 -0.0608053045
v -0.152013261 -0.121610609 0.0608053045
v -0.152013261 -0.0608053045 -0.121610609
v -0.152013261 -0.0608053045 0.121610609
v -0.152013261 0.0608053045 -0.121610609
v -0.152013261 0.0608053045 0.121610609
v -0.152013261 0.121610609 -0.0608053045
v -0.152013261 0.121610609 0.0608053045
v -0.15175279 -0.121402232 -0.0910516739
v -0.15175279 -0.121402232 0.0910516739
v -0.15175279 -0.0910516739 -0.121402232
v -0.15175279 -0.0910516739 0.121402232
v -0.15175279 0.0910516739 -0.121402232
v -0.15175279 0.0910516739 0.121402232
v -0.15175279 0.121402232 -0.0910516739
v -0.15175279 0.121402232 0.0910516739
v -0.149494223 -0.119595378 -0.119595378
v -0.149494223 -0.119595378 0.119595378
v -0.149494223 0.119595378 -0.119595378
v -0.149494223 0.119595378 0.119595378
v -0.142135627 -0.142135627 0
v -0.142135627 0 -0.142135627
v -0.142135627 0 0.142135627
v -0.142135627 0.142135627 0
v -0.142135604 -0.142135604 -0.0284271208
v -0.142135604 -0.142135604 0.0284271208
v -0.142135604 -0.0284271208 -0.142135604
v -0.142135604 -0.0284271208 0.142135604
v -0.142135604 0.0284271208 -0.142135604
v -0.142135604 0.0284271208 0.142135604
v -0.142135604 0.142135604 -0.0284271208
v -0.142135604 0.142135604 0.0284271208
v -0.142129806 -0.142129806 -0.0568519224
v -0.142129806 -0.142129806 0.0568519224
v -0.142129806 -0.0568519224 -0.142129806
v -0.142129806 -0.0568519224 0.142129806
v -0.142129806 0.0568519224 -0.142129806
v -0.142129806 0.0568519224 0.142129806
v -0.142129806 0.142129806 -0.0568519224
v -0.142129806 0.142129806 0.0568519224
v -0.141987119 -0.141987119 -0.0851922714
v -0.141987119 -0.141987119 0.0851922714
v -0.141987119 -0.0851922714 -0.141987119
v -0.141987119 -0.0851922714 0.141987119
v -0.141987119 0.0851922714 -0.141987119
v -0.141987119 0.0851922714 0.141987119
v -0.141987119 0.141987119 -0.0851922714
v -0.141987119 0.141987119 0.0851922714
v -0.14071163 -0.14071163 -0.112569304
v -0.14071163 -0.14071163 0.112569304
v -0.14071163 -0.112569304 -0.14071163
v -0.14071163 -0.112569304 0.14071163
v -0.14071163 0.112569304 -0.14071163
v -0.14071163 0.112569304 0.14071163
v -0.14071163 0.14071163 -0.112569304
v -0.14071163 0.14071163 0.112569304
v -0.135111259 -0.135111259 -0.135111259
v -0.135111259 -0.135111259 0.135111259
v -0.135111259 0.135111259 -0.135111259
v -0.135111259 0.135111259 0.135111259
v -0.121619138 -0.152023922 0
v -0.121619138 0 -0.152023922
v -0.121619138 0 0.152023922
v -0.121619138 0.152023922 0
v -0.121619105 -0.152023881 -0.0304047761
v -0.121619105 -0.152023881 0.0304047761
v -0.121619105 -0.0304047761 -0.152023881
v -0.121619105 -0.0304047761 0.152023881
v -0.121619105 0.0304047761 -0.152023881
v -0.121619105 0.0304047761 0.152023881
v -0.121619105 0.152023881 -0.0304047761
v -0.121619105 0.152023881 0.0304047761
v -0.121610609 -0.152013261 -0.0608053045
v -0.121610609 -0.152013261 0.0608053045
v -0.121610609 -0.0608053045 -0.152013261
v -0.121610609 -0.0608053045 0.152013261
v -0.121610609 0.0608053045 -0.152013261
v -0.121610609 0.0608053045 0.152013261
v -0.121610609 0.152013261 -0.0608053045
v -0.121610609 0.152013261 0.0608053045
v -0.121402232 -0.15175279 -0.0910516739
v -0.121402232 -0.15175279 0.0910516739
v -0.121402232 -0.0910516739 -0.15175279
v -0.121402232 -0.0910516739 0.15175279
v -0.121402232 0.0910516739 -0.15175279
v -0.121402232 0.0910516739 0.15175279
v -0.121402232 0.15175279 -0.0910516739
v -0.121402232 0.15175279 0.0910516739
v -0.119595378 -0.149494223 -0.119595378
v -0.119595378 -0.149494223 0.119595378
v -0.119595378 -0.119595378 -0.149494223
v -0.119595378 -0.119595378 0.149494223
v -0.119595378 0.119595378 -0.149494223
v -0.119595378 0.119595378 0.149494223
v -0.119595378 0.149494223 -0.119595378
v -0.119595378 0.149494223 0.119595378
v -0.112569304 -0.14071163 -0.14071163
v -0.112569304 -0.14071163 0.14071163
v -0.112569304 0.14071163 -0.14071163
v -0.112569304 0.14071163 0.14071163
v -0.0928065677 -0.154677613 0
v -0.0928065677 0 -0.154677613
v -0.0928065677 0 0.154677613
v -0.0928065677 0.154677613 0
v -0.0928065385 -0.154677564 -0.0309355128
v -0.0928065385 -0.154677564 0.0309355128
v -0.0928065385 -0.0309355128 -0.154677564
v -0.0928065385 -0.0309355128 0.154677564
v -0.0928065385 0.0309355128 -0.154677564
v -0.0928065385 0.0309355128 0.154677564
v -0.0928065385 0.154677564 -0.0309355128
v -0.0928065385 0.154677564 0.0309355128
v -0.0927990933 -0.154665156 -0.0618660622
v -0.0927990933 -0.154665156 0.0618660622
v -0.0927990933 -0.0618660622 -0.154665156
v -0.0927990933 -0.0618660622 0.154665156
v -0.0927990933 0.0618660622 -0.154665156
v -0.0927990933 0.0618660622 0.154665156
v -0.0927990933 0.154665156 -0.0618660622
v -0.0927990933 0.154665156 0.0618660622
v -0.0926166971 -0.154361162 -0.0926166971
v -0.0926166971 -0.154361162 0.0926166971
v -0.0926166971 -0.0926166971 -0.154361162
v -0.0926166971 -0.0926166971 0.154361162
v -0.0926166971 0.0926166971 -0.154361162
v -0.0926166971 0.0926166971 0.154361162
v -0.0926166971 0.154361162 -0.0926166971
v -0.0926166971 0.154361162 0.0926166971
v -0.0910516739 -0.15175279 -0.121402232
v -0.0910516739 -0.15175279 0.121402232
v -0.0910516739 -0.121402232 -0.15175279
v -0.0910516739 -0.121402232 0.15175279
v -0.0910516739 0.121402232 -0.15175279
v -0.0910516739 0.121402232 0.15175279
v -0.0910516739 0.15175279 -0.121402232
v -0.0910516739 0.15175279 0.121402232
v -0.0851922714 -0.141987119 -0.141987119
v -0.0851922714 -0.141987119 0.141987119
v -0.0851922714 0.141987119 -0.141987119
v -0.0851922714 0.141987119 0.141987119
v -0.0619949228 -0.154987307 0
v -0.0619949228 0 -0.154987307
v -0.0619949228 0 0.154987307
v -0.0619949228 0.154987307 0
v -0.061994903 -0.154987258 -0.0309974515
v -0.061994903 -0.154987258 0.0309974515
v -0.061994903 -0.0309974515 -0.154987258
v -0.061994903 -0.0309974515 0.154987258
v -0.061994903 0.0309974515 -0.154987258
v -0.061994903 0.0309974515 0.154987258
v -0.061994903 0.154987258 -0.0309974515
v -0.061994903 0.154987258 0.0309974515
v -0.0619898494 -0.154974624 -0.0619898494
v -0.0619898494 -0.154974624 0.0619898494
v -0.0619898494 -0.0619898494 -0.154974624
v -0.0619898494 -0.0619898494 0.154974624
v -0.0619898494 0.0619898494 -0.154974624
v -0.0619898494 0.0619898494 0.154974624
v -0.0619898494 0.154974624 -0.0619898494
v -0.0619898494 0.154974624 0.0619898494
v -0.0618660622 -0.154665156 -0.0927990933
v -0.0618660622 -0.154665156 0.0927990933
v -0.0618660622 -0.0927990933 -0.154665156
v -0.0618660622 -0.0927990933 0.154665156
v -0.0618660622 0.0927990933 -0.154665156
v -0.0618660622 0.0927990933 0.154665156
v -0.0618660622 0.154665156 -0.0927990933
v -0.0618660622 0.154665156 0.0927990933
v -0.0608053045 -0.152013261 -0.121610609
v -0.0608053045 -0.152013261 0.121610609
v -0.0608053045 -0.121610609 -0.152013261
v -0.0608053045 -0.121610609 0.152013261
v -0.0608053045 0.121610609 -0.152013261
v -0.0608053045 0.121610609 0.152013261
v -0.0608053045 0.152013261 -0.121610609
v -0.0608053045 0.152013261 0.121610609
v -0.0568519224 -0.142129806 -0.142129806
v -0.0568519224 -0.142129806 0.142129806
v -0.0568519224 0.142129806 -0.142129806
v -0.0568519224 0.142129806 0.142129806
v -0.0309999901 -0.15499995 0
v -0.0309999901 0 -0.15499995
v -0.0309999901 0 0.15499995
v -0.0309999901 0.15499995 0
v -0.0309999802 -0.154999901 -0.0309999802
v -0.0309999802 -0.154999901 0.0309999802
v -0.0309999802 -0.0309999802 -0.154999901
v -0.0309999802 -0.0309999802 0.154999901
v -0.0309999802 0.0309999802 -0.154999901
v -0.0309999802 0.0309999802 0.154999901
v -0.0309999802 0.154999901 -0.0309999802
v -0.0309999802 0.154999901 0.0309999802
v -0.0309974515 -0.154987258 -0.061994903
v -0.0309974515 -0.154987258 0.061994903
v -0.0309974515 -0.061994903 -0.154987258
v -0.0309974515 -0.061994903 0.154987258
v -0.0309974515 0.061994903 -0.154987258
v -0.0309974515 0.061994903 0.154987258
v -0.0309974515 0.154987258 -0.061994903
v -0.0309974515 0.154987258 0.061994903
v -0.0309355128 -0.154677564 -0.0928065385
v -0.0309355128 -0.154677564 0.0928065385
v -0.0309355128 -0.0928065385 -0.154677564
v -0.0309355128 -0.0928065385 0.154677564
v -0.0309355128 0.0928065385 -0.154677564
v -0.0309355128 0.0928065385 0.154677564
v -0.0309355128 0.154677564 -0.0928065385
v -0.0309355128 0.154677564 0.0928065385
v -0.0304047761 -0.152023881 -0.121619105
v -0.0304047761 -0.152023881 0.121619105
v -0.0304047761 -0.121619105 -0.152023881
v -0.0304047761 -0.121619105 0.152023881
v -0.0304047761 0.121619105 -0.152023881
v -0.0304047761 0.121619105 0.152023881
v -0.0304047761 0.152023881 -0.121619105
v -0.0304047761 0.152023881 0.121619105
v -0.0284271208 -0.142135604 -0.142135604
v -0.0284271208 -0.142135604 0.142135604
v -0.0284271208 0.142135604 -0.142135604
v -0.0284271208 0.142135604 0.142135604
v 0 -0.155 0
v 0 -0.15499995 -0.0309999901
v 0 -0.15499995 0.0309999901
v 0 -0.154987307 -0.0619949228
v 0 -0.154987307 0.0619949228
v 0 -0.154677613 -0.0928065677
v 0 -0.154677613 0.0928065677
v 0 -0.152023922 -0.121619138
v 0 -0.152023922 0.121619138
v 0 -0.142135627 -0.142135627
v 0 -0.142135627 0.142135627
v 0 -0.121619138 -0.152023922
v 0 -0.121619138 0.152023922
v 0 -0.0928065677 -0.154677613
v 0 -0.0928065677 0.154677613
v 0 -0.0619949228 -0.154987307
v 0 -0.0619949228 0.154987307
v 0 -0.0309999901 -0.15499995
v 0 -0.0309999901 0.15499995
v 0 0 -0.155
v 0 0 0.155
v 0 0.0309999901 -0.15499995
v 0 0.0309999901 0.15499995
v 0 0.0619949228 -0.154987307
v 0 0.0619949228 0.154987307
v 0 0.0928065677 -0.154677613
v 0 0.0928065677 0.154677613
v 0 0.121619138 -0.152023922
v 0 0.121619138 0.152023922
v 0 0.142135627 -0.142135627
v 0 0.142135627 0.142135627
v 0 0.152023922 -0.121619138
v 0 0.152023922 0.121619138
v 0 0.154677613 -0.0928065677
v 0 0.154677613 0.0928065677
v 0 0.154987307 -0.0619949228
v 0 0.154987307 0.0619949228
v 0 0.15499995 -0.0309999901
v 0 0.15499995 0.0309999901
v 0 0.155 0
v 0.0284271208 -0.142135604 -0.142135604
v 0.0284271208 -0.142135604 0.142135604
v 0.0284271208 0.142135604 -0.142135604
v 0.0284271208 0.142135604 0.142135604
v 0.0304047761 -0.152023881 -0.121619105
v 0.0304047761 -0.152023881 0.121619105
v 0.0304047761 -0.121619105 -0.152023881
v 0.0304047761 -0.121619105 0.152023881
v 0.0304047761 0.121619105 -0.152023881
v 0.0304047761 0.121619105 0.152023881
v 0.0304047761 0.152023881 -0.121619105
v 0.0304047761 0.152023881 0.121619105
v 0.0309355128 -0.154677564 -0.0928065385
v 0.0309355128 -0.154677564 0.0928065385
v 0.0309355128 -0.0928065385 -0.154677564
v 0.0309355128 -0.0928065385 0.154677564
v 0.0309355128 0.0928065385 -0.154677564
v 0.0309355128 0.0928065385 0.154677564
v 0.0309355128 0.154677564 -0.0928065385
v 0.0309355128 0.154677564 0.0928065385
v 0.0309974515 -0.154987258 -0.061994903
v 0.0309974515 -0.154987258 0.061994903
v 0.0309974515 -0.061994903 -0.154987258
v 0.0309974515 -0.061994903 0.154987258
v 0.0309974515 0.061994903 -0.154987258
v 0.0309974515 0.061994903 0.154987258
v 0.0309974515 0.154987258 -0.061994903
v 0.0309974515 0.154987258 0.061994903
v 0.0309999802 -0.154999901 -0.0309999802
v 0.0309999802 -0.154999901 0.0309999802
v 0.0309999802 -0.0309999802 -0.154999901
v 0.0309999802 -0.0309999802 0.154999901
v 0.0309999802 0.0309999802 -0.154999901
v 0.0309999802 0.0309999802 0.154999901
v 0.0309999802 0.154999901 -0.0309999802
v 0.0309999802 0.154999901 0.0309999802
v 0.0309999901 -0.15499995 0
v 0.0309999901 0 -0.15499995
v 0.0309999901 0 0.15499995
v 0.0309999901 0.15499995 0
v 0.0568519224 -0.142129806 -0.142129806
v 0.0568519224 -0.142129806 0.142129806
v 0.0568519224 0.142129806 -0.142129806
v 0.0568519224 0.142129806 0.142129806
v 0.0608053045 -0.152013261 -0.121610609
v 0.0608053045 -0.152013261 0.121610609
v 0.0608053045 -0.121610609 -0.152013261
v 0.0608053045 -0.121610609 0.152013261
v 0.0608053045 0.121610609 -0.152013261
v 0.0608053045 0.121610609 0.152013261
v 0.0608053045 0.152013261 -0.121610609
v 0.0608053045 0.152013261 0.121610609
v 0.0618660622 -0.154665156 -0.0927990933
v 0.0618660622 -0.154665156 0.0927990933
v 0.0618660622 -0.0927990933 -0.154665156
v 0.0618660622 -0.0927990933 0.154665156
v 0.0618660622 0.0927990933 -0.154665156
v 0.0618660622 0.0927990933 0.154665156
v 0.0618660622 0.154665156 -0.0927990933
v 0.0618660622 0.154665156 0.0927990933
v 0.0619898494 -0.154974624 -0.0619898494
v 0.0619898494 -0.154974624 0.0619898494
v 0.0619898494 -0.0619898494 -0.154974624
v 0.0619898494 -0.0619898494 0.154974624
v 0.0619898494 0.0619898494 -0.154974624
v 0.0619898494 0.0619898494 0.154974624
v 0.0619898494 0.154974624 -0.0619898494
v 0.0619898494 0.154974624 0.0619898494
v 0.061994903 -0.154987258 -0.0309974515
v 0.061994903 -0.154987258 0.0309974515
v 0.061994903 -0.0309974515 -0.154987258
v 0.061994903 -0.0309974515 0.154987258
v 0.061994903 0.0309974515 -0.154987258
v 0.061994903 0.0309974515 0.154987258
v 0.061994903 0.154987258 -0.0309974515
v 0.061994903 0.154987258 0.0309974515
v 0.0619949228 -0.154987307 0
v 0.0619949228 0 -0.154987307
v 0.0619949228 0 0.154987307
v 0.0619949228 0.154987307 0
v 0.0851922714 -0.141987119 -0.141987119
v 0.0851922714 -0.141987119 0.141987119
v 0.0851922714 0.141987119 -0.141987119
v 0.0851922714 0.141987119 0.141987119
v 0.0910516739 -0.15175279 -0.121402232
v 0.0910516739 -0.15175279 0.121402232
v 0.0910516739 -0.121402232 -0.15175279
v 0.0910516739 -0.121402232 0.15175279
v 0.0910516739 0.121402232 -0.15175279
v 0.0910516739 0.121402232 0.15175279
v 0.0910516739 0.15175279 -0.121402232
v 0.0910516739 0.15175279 0.121402232
v 0.0926166971 -0.154361162 -0.0926166971
v 0.0926166971 -0.154361162 0.0926166971
v 0.0926166971 -0.0926166971 -0.154361162
v 0.0926166971 -0.0926166971 0.154361162
v 0.0926166971 0.0926166971 -0.154361162
v 0.0926166971 0.0926166971 0.154361162
v 0.0926166971 0.154361162 -0.0926166971
v 0.0926166971 0.154361162 0.0926166971
v 0.0927990933 -0.154665156 -0.0618660622
v 0.0927990933 -0.154665156 0.0618660622
v 0.0927990933 -0.0618660622 -0.154665156
v 0.0927990933 -0.0618660622 0.154665156
v 0.0927990933 0.0618660622 -0.154665156
v 0.0927990933 0.0618660622 0.154665156
v 0.0927990933 0.154665156 -0.0618660622
v 0.0927990933 0.154665156 0.0618660622
v 0.0928065385 -0.154677564 -0.0309355128
v 0.0928065385 -0.154677564 0.0309355128
v 0.0928065385 -0.0309355128 -0.154677564
v 0.0928065385 -0.0309355128 0.154677564
v 0.0928065385 0.0309355128 -0.154677564
v 0.0928065385 0.0309355128 0.154677564
v 0.0928065385 0.154677564 -0.0309355128
v 0.0928065385 0.154677564 0.0309355128
v 0.0928065677 -0.154677613 0
v 0.0928065677 0 -0.154677613
v 0.0928065677 0 0.154677613
v 0.0928065677 0.154677613 0
v 0.112569304 -0.14071163 -0.14071163
v 0.112569304 -0.14071163 0.14071163
v 0.112569304 0.14071163 -0.14071163
v 0.112569304 0.14071163 0.14071163
v 0.119595378 -0.149494223 -0.119595378
v 0.119595378 -0.149494223 0.119595378
v 0.119595378 -0.119595378 -0.149494223
v 0.119595378 -0.119595378 0.149494223
v 0.119595378 0.119595378 -0.149494223
v 0.119595378 0.119595378 0.149494223
v 0.119595378 0.149494223 -0.119595378
v 0.119595378 0.149494223 0.119595378
v 0.121402232 -0.15175279 -0.0910516739
v 0.121402232 -0.15175279 0.0910516739
v 0.121402232 -0.0910516739 -0.15175279
v 0.121402232 -0.0910516739 0.15175279
v 0.121402232 0.0910516739 -0.15175279
v 0.121402232 0.0910516739 0.15175279
v 0.121402232 0.15175279 -0.0910516739
v 0.121402232 0.15175279 0.0910516739
v 0.121610609 -0.152013261 -0.0608053045
v 0.121610609 -0.152013261 0.0608053045
v 0.121610609 -0.0608053045 -0.152013261
v 0.121610609 -0.0608053045 0.152013261
v 0.121610609 0.0608053045 -0.152013261
v 0.121610609 0.0608053045 0.152013261
v 0.121610609 0.152013261 -0.0608053045
v 0.121610609 0.152013261 0.0608053045
v 0.121619105 -0.152023881 -0.0304047761
v 0.121619105 -0.152023881 0.0304047761
v 0.121619105 -0.0304047761 -0.152023881
v 0.121619105 -0.0304047761 0.152023881
v 0.121619105 0.0304047761 -0.152023881
v 0.121619105 0.0304047761 0.152023881
v 0.121619105 0.152023881 -0.0304047761
v 0.121619105 0.152023881 0.0304047761
v 0.121619138 -0.152023922 0
v 0.121619138 0 -0.152023922
v 0.121619138 0 0.152023922
v 0.121619138 0.152023922 0
v 0.135111259 -0.135111259 -0.135111259
v 0.135111259 -0.135111259 0.135111259
v 0.135111259 0.135111259 -0.135111259
v 0.135111259 0.135111259 0.135111259
v 0.14071163 -0.14071163 -0.112569304
v 0.14071163 -0.14071163 0.112569304
v 0.14071163 -0.112569304 -0.14071163
v 0.14071163 -0.112569304 0.14071163
v 0.14071163 0.112569304 -0.14071163
v 0.14071163 0.112569304 0.14071163
v 0.14071163 0.14071163 -0.112569304
v 0.14071163 0.14071163 0.112569304
v 0.141987119 -0.141987119 -0.0851922714
v 0.141987119 -0.141987119 0.0851922714
v 0.141987119 -0.0851922714 -0.141987119
v 0.141987119 -0.0851922714 0.141987119
v 0.141987119 0.0851922714 -0.141987119
v 0.141987119 0.0851922714 0.141987119
v 0.141987119 0.141987119 -0.0851922714
v 0.141987119 0.141987119 0.0851922714
v 0.142129806 -0.142129806 -0.0568519224
v 0.142129806 -0.142129806 0.0568519224
v 0.142129806 -0.0568519224 -0.142129806
v 0.142129806 -0.0568519224 0.142129806
v 0.142129806 0.0568519224 -0.142129806
v 0.142129806 0.0568519224 0.142129806
v 0.142129806 0.142129806 -0.0568519224
v 0.142129806 0.142129806 0.0568519224
v 0.142135604 -0.142135604 -0.0284271208
v 0.142135604 -0.142135604 0.0284271208
v 0.142135604 -0.0284271208 -0.142135604
v 0.142135604 -0.0284271208 0.142135604
v 0.142135604 0.0284271208 -0.142135604
v 0.142135604 0.0284271208 0.142135604
v 0.142135604 0.142135604 -0.0284271208
v 0.142135604 0.142135604 0.0284271208
v 0.142135627 -0.142135627 0
v 0.142135627 0 -0.142135627
v 0.142135627 0 0.142135627
v 0.142135627 0.142135627 0
v 0.149494223 -0.119595378 -0.119595378
v 0.149494223 -0.119595378 0.119595378
v 0.149494223 0.119595378 -0.119595378
v 0.149494223 0.119595378 0.119595378
v 0.15175279 -0.121402232 -0.0910516739
v 0.15175279 -0.121402232 0.0910516739
v 0.15175279 -0.0910516739 -0.121402232
v 0.15175279 -0.0910516739 0.121402232
v 0.15175279 0.0910516739 -0.121402232
v 0.15175279 0.0910516739 0.121402232
v 0.15175279 0.121402232 -0.0910516739
v 0.15175279 0.121402232 0.0910516739
v 0.152013261 -0.121610609 -0.0608053045
v 0.152013261 -0.121610609 0.0608053045
v 0.152013261 -0.0608053045 -0.121610609
v 0.152013261 -0.0608053045 0.121610609
v 0.152013261 0.0608053045 -0.121610609
v 0.152013261 0.0608053045 0.121610609
v 0.152013261 0.121610609 -0.0608053045
v 0.152013261 0.121610609 0.0608053045
v 0.152023881 -0.121619105 -0.0304047761
v 0.152023881 -0.121619105 0.0304047761
v 0.152023881 -0.0304047761 -0.121619105
v 0.152023881 -0.0304047761 0.121619105
v 0.152023881 0.0304047761 -0.121619105
v 0.152023881 0.0304047761 0.121619105
v 0.152023881 0.121619105 -0.0304047761
v 0.152023881 0.121619105 0.0304047761
v 0.152023922 -0.121619138 0
v 0.152023922 0 -0.121619138
v 0.152023922 0 0.121619138
v 0.152023922 0.121619138 0
v 0.154361162 -0.0926166971 -0.0926166971
v 0.154361162 -0.0926166971 0.0926166971
v 0.154361162 0.0926166971 -0.0926166971
v 0.154361162 0.0926166971 0.0926166971
v 0.154665156 -0.0927990933 -0.0618660622
v 0.154665156 -0.0927990933 0.0618660622
v 0.154665156 -0.0618660622 -0.0927990933
v 0.154665156 -0.0618660622 0.0927990933
v 0.154665156 0.0618660622 -0.0927990933
v 0.154665156 0.0618660622 0.0927990933
v 0.154665156 0.0927990933 -0.0618660622
v 0.154665156 0.0927990933 0.0618660622
v 0.154677564 -0.0928065385 -0.0309355128
v 0.154677564 -0.0928065385 0.0309355128
v 0.154677564 -0.0309355128 -0.0928065385
v 0.154677564 -0.0309355128 0.0928065385
v 0.154677564 0.0309355128 -0.0928065385
v 0.154677564 0.0309355128 0.0928065385
v 0.154677564 0.0928065385 -0.0309355128
v 0.154677564 0.0928065385 0.0309355128
v 0.154677613 -0.0928065677 0
v 0.154677613 0 -0.0928065677
v 0.154677613 0 0.0928065677
v 0.154677613 0.0928065677 0
v 0.154974624 -0.0619898494 -0.0619898494
v 0.154974624 -0.0619898494 0.0619898494
v 0.154974624 0.0619898494 -0.0619898494
v 0.154974624 0.0619898494 0.0619898494
v 0.154987258 -0.061994903 -0.0309974515
v 0.154987258 -0.061994903 0.0309974515
v 0.154987258 -0.0309974515 -0.061994903
v 0.154987258 -0.0309974515 0.061994903
v 0.154987258 0.0309974515 -0.061994903
v 0.154987258 0.0309974515 0.061994903
v 0.154987258 0.061994903 -0.0309974515
v 0.154987258 0.061994903 0.0309974515
v 0.154987307 -0.0619949228 0
v 0.154987307 0 -0.0619949228
v 0.154987307 0 0.0619949228
v 0.154987307 0.0619949228 0
v 0.154999901 -0.0309999802 -0.0309999802
v 0.154999901 -0.0309999802 0.0309999802
v 0.154999901 0.0309999802 -0.0309999802
v 0.154999901 0.0309999802 0.0309999802
v 0.15499995 -0.0309999901 0
v 0.15499995 0 -0.0309999901
v 0.15499995 0 0.0309999901
v 0.15499995 0.0309999901 0
v 0.155 0 0
f 118 78 112
f 118 110 78
f 112 78 104
f 104 78 72
f 104 64 96
f 104 72 64
f 96 64 88
f 88 64 56
f 88 51 83
f 88 56 51
f 83 51 90
f 90 51 58
f 90 66 98
f 90 58 66
f 98 66 106
f 106 66 74
f 106 80 114
f 106 74 80
f 114 80 120
f 120 80 116
f 110 102 78
f 78 102 70
f 78 46 72
f 78 70 46
f 72 46 64
f 64 46 40
f 64 32 56
f 64 40 32
f 56 32 51
f 51 32 27
f 51 34 58
f 51 27 34
f 58 34 66
f 66 34 42
f 66 48 74
f 66 42 48
f 74 48 80
f 80 48 76
f 80 108 116
f 80 76 108
f 102 62 70
f 102 94 62
f 70 62 46
f 46 62 38
f 46 22 40
f 46 38 22
f 40 22 32
f 32 22 16
f 32 11 27
f 32 16 11
f 27 11 34
f 34 11 18
f 34 24 42
f 34 18 24
f 42 24 48
f 48 24 44
f 48 68 76
f 48 44 68
f 76 68 108
f 108 68 100
f 94 86 62
f 62 86 54
f 62 30 38
f 62 54 30
f 38 30 22
f 22 30 14
f 22 6 16
f 22 14 6
f 16 6 11
f 11 6 3
f 11 8 18
f 11 3 8
f 18 8 24
f 24 8 20
f 24 36 44
f 24 20 36
f 44 36 68
f 68 36 60
f 68 92 100
f 68 60 92
f 86 50 54
f 86 82 50
f 54 50 30
f 30 50 26
f 30 10 14
f 30 26 10
f 14 10 6
f 6 10 2
f 6 1 3
f 6 2 1
f 3 1 8
f 8 1 5
f 8 13 20
f 8 5 13
f 20 13 36
f 36 13 29
f 36 53 60
f 36 29 53
f 60 53 92
f 92 53 85
f 82 87 50
f 50 87 55
f 50 31 26
f 50 55 31
f 26 31 10
f 10 31 15
f 10 7 2
f 10 15 7
f 2 7 1
f 1 7 4
f 1 9 5
f 1 4 9
f 5 9 13
f 13 9 21
f 13 37 29
f 13 21 37
f 29 37 53
f 53 37 61
f 53 93 85
f 53 61 93
f 87 63 55
f 87 95 63
f 55 63 31
f 31 63 39
f 31 23 15
f 31 39 23
f 15 23 7
f 7 23 17
f 7 12 4
f 7 17 12
f 4 12 9
f 9 12 19
f 9 25 21
f 9 19 25
f 21 25 37
f 37 25 45
f 37 69 61
f 37 45 69
f 61 69 93
f 93 69 101
f 95 103 63
f 63 103 71
f 63 47 39
f 63 71 47
f 39 47 23
f 23 47 41
f 23 33 17
f 23 41 33
f 17 33 12
f 12 33 28
f 12 35 19
f 12 28 35
f 19 35 25
f 25 35 43
f 25 49 45
f 25 43 49
f 45 49 69
f 69 49 77
f 69 109 101
f 69 77 109
f 103 79 71
f 103 111 79
f 71 79 47
f 47 79 73
f 47 65 41
f 47 73 65
f 41 65 33
f 33 65 57
f 33 52 28
f 33 57 52
f 28 52 35
f 35 52 59
f 35 67 43
f 35 59 67
f 43 67 49
f 49 67 75
f 49 81 77
f 49 75 81
f 77 81 109
f 109 81 117
f 111 119 79
f 79 119 113
f 79 105 73
f 79 113 105
f 73 105 65
f 65 105 97
f 65 89 57
f 65 97 89
f 57 89 52
f 52 89 84
f 52 91 59
f 52 84 91
f 59 91 67
f 67 91 99
f 67 107 75
f 67 99 107
f 75 107 81
f 81 107 115
f 81 121 117
f 81 115 121
f 482 488 522
f 482 522 486
f 488 496 522
f 496 528 522
f 496 504 536
f 496 536 528
f 504 512 536
f 512 544 536
f 512 519 551
f 512 551 544
f 519 514 551
f 514 546 551
f 514 506 538
f 514 538 546
f 506 498 538
f 498 530 538
f 498 490 524
f 498 524 530
f 490 484 524
f 484 492 524
f 486 522 494
f 522 526 494
f 522 528 554
f 522 554 526
f 528 536 554
f 536 560 554
f 536 544 568
f 536 568 560
f 544 551 568
f 551 575 568
f 551 546 570
f 551 570 575
f 546 538 570
f 538 562 570
f 538 530 556
f 538 556 562
f 530 524 556
f 524 532 556
f 524 492 500
f 524 500 532
f 494 526 534
f 494 534 502
f 526 554 534
f 554 558 534
f 554 560 578
f 554 578 558
f 560 568 578
f 568 584 578
f 568 575 591
f 568 591 584
f 575 570 591
f 570 586 591
f 570 562 580
f 570 580 586
f 562 556 580
f 556 564 580
f 556 532 540
f 556 540 564
f 532 500 540
f 500 508 540
f 502 534 510
f 534 542 510
f 534 558 566
f 534 566 542
f 558 578 566
f 578 582 566
f 578 584 594
f 578 594 582
f 584 591 594
f 591 599 594
f 591 586 596
f 591 596 599
f 586 580 596
f 580 588 596
f 580 564 572
f 580 572 588
f 564 540 572
f 540 548 572
f 540 508 516
f 540 516 548
f 510 542 550
f 510 550 518
f 542 566 550
f 566 574 550
f 566 582 590
f 566 590 574
f 582 594 590
f 594 598 590
f 594 599 602
f 594 602 598
f 599 596 602
f 596 601 602
f 596 588 593
f 596 593 601
f 588 572 593
f 572 577 593
f 572 548 553
f 572 553 577
f 548 516 553
f 516 521 553
f 518 550 511
f 550 543 511
f 550 574 567
f 550 567 543
f 574 590 567
f 590 583 567
f 590 598 595
f 590 595 583
f 598 602 595
f 602 600 595
f 602 601 597
f 602 597 600
f 601 593 597
f 593 589 597
f 593 577 573
f 593 573 589
f 577 553 573
f 553 549 573
f 553 521 517
f 553 517 549
f 511 543 535
f 511 535 503
f 543 567 535
f 567 559 535
f 567 583 579
f 567 579 559
f 583 595 579
f 595 585 579
f 595 600 592
f 595 592 585
f 600 597 592
f 597 587 592
f 597 589 581
f 597 581 587
f 589 573 581
f 573 565 581
f 573 549 541
f 573 541 565
f 549 517 541
f 517 509 541
f 503 535 495
f 535 527 495
f 535 559 555
f 535 555 527
f 559 579 555
f 579 561 555
f 579 585 569
f 579 569 561
f 585 592 569
f 592 576 569
f 592 587 571
f 592 571 576
f 587 581 571
f 581 563 571
f 581 565 557
f 581 557 563
f 565 541 557
f 541 533 557
f 541 509 501
f 541 501 533
f 495 527 523
f 495 523 487
f 527 555 523
f 555 529 523
f 555 561 537
f 555 537 529
f 561 569 537
f 569 545 537
f 569 576 552
f 569 552 545
f 576 571 552
f 571 547 552
f 571 563 539
f 571 539 547
f 563 557 539
f 557 531 539
f 557 533 525
f 557 525 531
f 533 501 525
f 501 493 525
f 487 523 483
f 523 489 483
f 523 529 497
f 523 497 489
f 529 537 497
f 537 505 497
f 537 545 513
f 537 513 505
f 545 552 513
f 552 520 513
f 552 547 515
f 552 515 520
f 547 539 515
f 539 507 515
f 539 531 499
f 539 499 507
f 531 525 499
f 525 491 499
f 525 493 485
f 525 485 491
f 118 158 150
f 118 150 110
f 158 198 150
f 198 190 150
f 198 238 230
f 198 230 190
f 238 278 230
f 278 270 230
f 278 291 289
f 278 289 270
f 291 322 289
f 322 326 289
f 322 362 366
f 322 366 326
f 362 402 366
f 402 406 366
f 402 442 446
f 402 446 406
f 442 482 446
f 482 486 446
f 110 150 102
f 150 142 102
f 150 190 182
f 150 182 142
f 190 230 182
f 230 222 182
f 230 270 262
f 230 262 222
f 270 289 262
f 289 287 262
f 289 326 334
f 289 334 287
f 326 366 334
f 366 374 334
f 366 406 414
f 366 414 374
f 406 446 414
f 446 454 414
f 446 486 494
f 446 494 454
f 102 142 134
f 102 134 94
f 142 182 134
f 182 174 134
f 182 222 214
f 182 214 174
f 222 262 214
f 262 254 214
f 262 287 285
f 262 285 254
f 287 334 285
f 334 342 285
f 334 374 382
f 334 382 342
f 374 414 382
f 414 422 382
f 414 454 462
f 414 462 422
f 454 494 462
f 494 502 462
f 94 134 86
f 134 126 86
f 134 174 166
f 134 166 126
f 174 214 166
f 214 206 166
f 214 254 246
f 214 246 206
f 254 285 246
f 285 283 246
f 285 342 350
f 285 350 283
f 342 382 350
f 382 390 350
f 382 422 430
f 382 430 390
f 422 462 430
f 462 470 430
f 462 502 510
f 462 510 470
f 86 126 122
f 86 122 82
f 126 166 122
f 166 162 122
f 166 206 202
f 166 202 162
f 206 246 202
f 246 242 202
f 246 283 282
f 246 282 242
f 283 350 282
f 350 358 282
f 350 390 398
f 350 398 358
f 390 430 398
f 430 438 398
f 430 470 478
f 430 478 438
f 470 510 478
f 510 518 478
f 82 122 87
f 122 127 87
f 122 162 167
f 122 167 127
f 162 202 167
f 202 207 167
f 202 242 247
f 202 247 207
f 242 282 247
f 282 284 247
f 282 358 351
f 282 351 284
f 358 398 351
f 398 391 351
f 398 438 431
f 398 431 391
f 438 478 431
f 478 471 431
f 478 518 511
f 478 511 471
f 87 127 135
f 87 135 95
f 127 167 135
f 167 175 135
f 167 207 215
f 167 215 175
f 207 247 215
f 247 255 215
f 247 284 286
f 247 286 255
f 284 351 286
f 351 343 286
f 351 391 383
f 351 383 343
f 391 431 383
f 431 423 383
f 431 471 463
f 431 463 423
f 471 511 463
f 511 503 463
f 95 135 103
f 135 143 103
f 135 175 183
f 135 183 143
f 175 215 183
f 215 223 183
f 215 255 263
f 215 263 223
f 255 286 263
f 286 288 263
f 286 343 335
f 286 335 288
f 343 383 335
f 383 375 335
f 383 423 415
f 383 415 375
f 423 463 415
f 463 455 415
f 463 503 495
f 463 495 455
f 103 143 151
f 103 151 111
f 143 183 151
f 183 191 151
f 183 223 231
f 183 231 191
f 223 263 231
f 263 271 231
f 263 288 290
f 263 290 271
f 288 335 290
f 335 327 290
f 335 375 367
f 335 367 327
f 375 415 367
f 415 407 367
f 415 455 447
f 415 447 407
f 455 495 447
f 495 487 447
f 111 151 119
f 151 159 119
f 151 191 199
f 151 199 159
f 191 231 199
f 231 239 199
f 231 271 279
f 231 279 239
f 271 290 279
f 290 292 279
f 290 327 323
f 290 323 292
f 327 367 323
f 367 363 323
f 367 407 403
f 367 403 363
f 407 447 403
f 447 443 403
f 447 487 483
f 447 483 443
f 120 156 160
f 120 116 156
f 160 156 200
f 200 156 196
f 200 236 240
f 200 196 236
f 240 236 280
f 280 236 276
f 280 313 311
f 280 276 313
f 311 313 324
f 324 313 332
f 324 372 364
f 324 332 372
f 364 372 404
f 404 372 412
f 404 452 444
f 404 412 452
f 444 452 484
f 484 452 492
f 116 108 156
f 156 108 148
f 156 188 196
f 156 148 188
f 196 188 236
f 236 188 228
f 236 268 276
f 236 228 268
f 276 268 313
f 313 268 315
f 313 340 332
f 313 315 340
f 332 340 372
f 372 340 380
f 372 420 412
f 372 380 420
f 412 420 452
f 452 420 460
f 452 500 492
f 452 460 500
f 108 140 148
f 108 100 140
f 148 140 188
f 188 140 180
f 188 220 228
f 188 180 220
f 228 220 268
f 268 220 260
f 268 317 315
f 268 260 317
f 315 317 340
f 340 317 348
f 340 388 380
f 340 348 388
f 380 388 420
f 420 388 428
f 420 468 460
f 420 428 468
f 460 468 500
f 500 468 508
f 100 92 140
f 140 92 132
f 140 172 180
f 140 132 172
f 180 172 220
f 220 172 212
f 220 252 260
f 220 212 252
f 260 252 317
f 317 252 319
f 317 356 348
f 317 319 356
f 348 356 388
f 388 356 396
f 388 436 428
f 388 396 436
f 428 436 468
f 468 436 476
f 468 516 508
f 468 476 516
f 92 125 132
f 92 85 125
f 132 125 172
f 172 125 165
f 172 205 212
f 172 165 205
f 212 205 252
f 252 205 245
f 252 321 319
f 252 245 321
f 319 321 356
f 356 321 361
f 356 401 396
f 356 361 401
f 396 401 436
f 436 401 441
f 436 481 476
f 436 441 481
f 476 481 516
f 516 481 521
f 85 93 125
f 125 93 133
f 125 173 165
f 125 133 173
f 165 173 205
f 205 173 213
f 205 253 245
f 205 213 253
f 245 253 321
f 321 253 320
f 321 357 361
f 321 320 357
f 361 357 401
f 401 357 397
f 401 437 441
f 401 397 437
f 441 437 481
f 481 437 477
f 481 517 521
f 481 477 517
f 93 141 133
f 93 101 141
f 133 141 173
f 173 141 181
f 173 221 213
f 173 181 221
f 213 221 253
f 253 221 261
f 253 318 320
f 253 261 318
f 320 318 357
f 357 318 349
f 357 389 397
f 357 349 389
f 397 389 437
f 437 389 429
f 437 469 477
f 437 429 469
f 477 469 517
f 517 469 509
f 101 109 141
f 141 109 149
f 141 189 181
f 141 149 189
f 181 189 221
f 221 189 229
f 221 269 261
f 221 229 269
f 261 269 318
f 318 269 316
f 318 341 349
f 318 316 341
f 349 341 389
f 389 341 381
f 389 421 429
f 389 381 421
f 429 421 469
f 469 421 461
f 469 501 509
f 469 461 501
f 109 157 149
f 109 117 157
f 149 157 189
f 189 157 197
f 189 237 229
f 189 197 237
f 229 237 269
f 269 237 277
f 269 314 316
f 269 277 314
f 316 314 341
f 341 314 333
f 341 373 381
f 341 333 373
f 381 373 421
f 421 373 413
f 421 453 461
f 421 413 453
f 461 453 501
f 501 453 493
f 117 121 157
f 157 121 161
f 157 201 197
f 157 161 201
f 197 201 237
f 237 201 241
f 237 281 277
f 237 241 281
f 277 281 314
f 314 281 312
f 314 325 333
f 314 312 325
f 333 325 373
f 373 325 365
f 373 405 413
f 373 365 405
f 413 405 453
f 453 405 445
f 453 485 493
f 453 445 485
f 118 152 158
f 118 112 152
f 158 152 198
f 198 152 192
f 198 232 238
f 198 192 232
f 238 232 278
f 278 232 272
f 278 293 291
f 278 272 293
f 291 293 322
f 322 293 328
f 322 368 362
f 322 328 368
f 362 368 402
f 402 368 408
f 402 448 442
f 402 408 448
f 442 448 482
f 482 448 488
f 112 104 152
f 152 104 144
f 152 184 192
f 152 144 184
f 192 184 232
f 232 184 224
f 232 264 272
f 232 224 264
f 272 264 293
f 293 264 295
f 293 336 328
f 293 295 336
f 328 336 368
f 368 336 376
f 368 416 408
f 368 376 416
f 408 416 448
f 448 416 456
f 448 496 488
f 448 456 496
f 104 136 144
f 104 96 136
f 144 136 184
f 184 136 176
f 184 216 224
f 184 176 216
f 224 216 264
f 264 216 256
f 264 297 295
f 264 256 297
f 295 297 336
f 336 297 344
f 336 384 376
f 336 344 384
f 376 384 416
f 416 384 424
f 416 464 456
f 416 424 464
f 456 464 496
f 496 464 504
f 96 88 136
f 136 88 128
f 136 168 176
f 136 128 168
f 176 168 216
f 216 168 208
f 216 248 256
f 216 208 248
f 256 248 297
f 297 248 299
f 297 352 344
f 297 299 352
f 344 352 384
f 384 352 392
f 384 432 424
f 384 392 432
f 424 432 464
f 464 432 472
f 464 512 504
f 464 472 512
f 88 123 128
f 88 83 123
f 128 123 168
f 168 123 163
f 168 203 208
f 168 163 203
f 208 203 248
f 248 203 243
f 248 301 299
f 248 243 301
f 299 301 352
f 352 301 359
f 352 399 392
f 352 359 399
f 392 399 432
f 432 399 439
f 432 479 472
f 432 439 479
f 472 479 512
f 512 479 519
f 83 90 123
f 123 90 130
f 123 170 163
f 123 130 170
f 163 170 203
f 203 170 210
f 203 250 243
f 203 210 250
f 243 250 301
f 301 250 303
f 301 354 359
f 301 303 354
f 359 354 399
f 399 354 394
f 399 434 439
f 399 394 434
f 439 434 479
f 479 434 474
f 479 514 519
f 479 474 514
f 90 138 130
f 90 98 138
f 130 138 170
f 170 138 178
f 170 218 210
f 170 178 218
f 210 218 250
f 250 218 258
f 250 305 303
f 250 258 305
f 303 305 354
f 354 305 346
f 354 386 394
f 354 346 386
f 394 386 434
f 434 386 426
f 434 466 474
f 434 426 466
f 474 466 514
f 514 466 506
f 98 106 138
f 138 106 146
f 138 186 178
f 138 146 186
f 178 186 218
f 218 186 226
f 218 266 258
f 218 226 266
f 258 266 305
f 305 266 307
f 305 338 346
f 305 307 338
f 346 338 386
f 386 338 378
f 386 418 426
f 386 378 418
f 426 418 466
f 466 418 458
f 466 498 506
f 466 458 498
f 106 154 146
f 106 114 154
f 146 154 186
f 186 154 194
f 186 234 226
f 186 194 234
f 226 234 266
f 266 234 274
f 266 309 307
f 266 274 309
f 307 309 338
f 338 309 330
f 338 370 378
f 338 330 370
f 378 370 418
f 418 370 410
f 418 450 458
f 418 410 450
f 458 450 498
f 498 450 490
f 114 120 154
f 154 120 160
f 154 200 194
f 154 160 200
f 194 200 234
f 234 200 240
f 234 280 274
f 234 240 280
f 274 280 309
f 309 280 311
f 309 324 330
f 309 311 324
f 330 324 370
f 370 324 364
f 370 404 410
f 370 364 404
f 410 404 450
f 450 404 444
f 450 484 490
f 450 444 484
f 119 159 153
f 119 153 113
f 159 199 153
f 199 193 153
f 199 239 233
f 199 233 193
f 239 279 233
f 279 273 233
f 279 292 294
f 279 294 273
f 292 323 294
f 323 329 294
f 323 363 369
f 323 369 329
f 363 403 369
f 403 409 369
f 403 443 449
f 403 449 409
f 443 483 449
f 483 489 449
f 113 153 105
f 153 145 105
f 153 193 185
f 153 185 145
f 193 233 185
f 233 225 185
f 233 273 265
f 233 265 225
f 273 294 265
f 294 296 265
f 294 329 337
f 294 337 296
f 329 369 337
f 369 377 337
f 369 409 417
f 369 417 377
f 409 449 417
f 449 457 417
f 449 489 497
f 449 497 457
f 105 145 137
f 105 137 97
f 145 185 137
f 185 177 137
f 185 225 217
f 185 217 177
f 225 265 217
f 265 257 217
f 265 296 298
f 265 298 257
f 296 337 298
f 337 345 298
f 337 377 385
f 337 385 345
f 377 417 385
f 417 425 385
f 417 457 465
f 417 465 425
f 457 497 465
f 497 505 465
f 97 137 89
f 137 129 89
f 137 177 169
f 137 169 129
f 177 217 169
f 217 209 169
f 217 257 249
f 217 249 209
f 257 298 249
f 298 300 249
f 298 345 353
f 298 353 300
f 345 385 353
f 385 393 353
f 385 425 433
f 385 433 393
f 425 465 433
f 465 473 433
f 465 505 513
f 465 513 473
f 89 129 124
f 89 124 84
f 129 169 124
f 169 164 124
f 169 209 204
f 169 204 164
f 209 249 204
f 249 244 204
f 249 300 302
f 249 302 244
f 300 353 302
f 353 360 302
f 353 393 400
f 353 400 360
f 393 433 400
f 433 440 400
f 433 473 480
f 433 480 440
f 473 513 480
f 513 520 480
f 84 124 91
f 124 131 91
f 124 164 171
f 124 171 131
f 164 204 171
f 204 211 171
f 204 244 251
f 204 251 211
f 244 302 251
f 302 304 251
f 302 360 355
f 302 355 304
f 360 400 355
f 400 395 355
f 400 440 435
f 400 435 395
f 440 480 435
f 480 475 435
f 480 520 515
f 480 515 475
f 91 131 139
f 91 139 99
f 131 171 139
f 171 179 139
f 171 211 219
f 171 219 179
f 211 251 219
f 251 259 219
f 251 304 306
f 251 306 259
f 304 355 306
f 355 347 306
f 355 395 387
f 355 387 347
f 395 435 387
f 435 427 387
f 435 475 467
f 435 467 427
f 475 515 467
f 515 507 467
f 99 139 107
f 139 147 107
f 139 179 187
f 139 187 147
f 179 219 187
f 219 227 187
f 219 259 267
f 219 267 227
f 259 306 267
f 306 308 267
f 306 347 339
f 306 339 308
f 347 387 339
f 387 379 339
f 387 427 419
f 387 419 379
f 427 467 419
f 467 459 419
f 467 507 499
f 467 499 459
f 107 147 155
f 107 155 115
f 147 187 155
f 187 195 155
f 187 227 235
f 187 235 195
f 227 267 235
f 267 275 235
f 267 308 310
f 267 310 275
f 308 339 310
f 339 331 310
f 339 379 371
f 339 371 331
f 379 419 371
f 419 411 371
f 419 459 451
f 419 451 411
f 459 499 451
f 499 491 451
f 115 155 121
f 155 161 121
f 155 195 201
f 155 201 161
f 195 235 201
f 235 241 201
f 235 275 281
f 235 281 241
f 275 310 281
f 310 312 281
f 310 331 325
f 310 325 312
f 331 371 325
f 371 365 325
f 371 411 405
f 371 405 365
f 411 451 405
f 451 445 405
f 451 491 485
f 451 485 445
